<?xml version="1.0" encoding="UTF-8" standalone="no"?>
<svg
   xmlns:dc="http://purl.org/dc/elements/1.1/"
   xmlns:cc="http://creativecommons.org/ns#"
   xmlns:rdf="http://www.w3.org/1999/02/22-rdf-syntax-ns#"
   xmlns:svg="http://www.w3.org/2000/svg"
   xmlns="http://www.w3.org/2000/svg"
   viewBox="0 0 682.66669 682.66669"
   height="682.66669"
   width="682.66669"
   xml:space="preserve"
   id="svg2"
   version="1.1"><metadata
     id="metadata8"><rdf:RDF><cc:Work
         rdf:about=""><dc:format>image/svg+xml</dc:format><dc:type
           rdf:resource="http://purl.org/dc/dcmitype/StillImage" /></cc:Work></rdf:RDF></metadata><defs
     id="defs6"><clipPath
       id="clipPath18"
       clipPathUnits="userSpaceOnUse"><path
         id="path16"
         d="m 259.56,288.365 v -68.858 h 95.802 c -4.125,-22.25 -16.668,-41.105 -35.521,-53.726 v 0 -44.665 h 57.531 c 33.66,30.99 53.079,76.625 53.079,130.838 v 0 c 0,12.623 -1.132,24.76 -3.236,36.411 v 0 z" /></clipPath><clipPath
       id="clipPath28"
       clipPathUnits="userSpaceOnUse"><path
         id="path26"
         d="M 100.483,222.178 V 176.056 C 129.774,117.878 189.974,77.989 259.56,77.989 v 0 c 48.064,0 88.359,15.939 117.812,43.127 v 0 l -57.531,44.665 C 303.901,155.1 283.511,148.788 259.56,148.788 v 0 c -46.364,0 -85.608,31.315 -99.606,73.39 v 0 z" /></clipPath><clipPath
       id="clipPath38"
       clipPathUnits="userSpaceOnUse"><path
         id="path36"
         d="M 100.483,335.942 C 88.427,311.911 81.549,284.725 81.549,256 v 0 c 0,-28.725 6.878,-55.912 18.934,-79.944 v 0 l 59.471,46.122 c -3.56,10.68 -5.582,22.089 -5.582,33.822 v 0 c 0,11.732 2.022,23.141 5.582,33.822 v 0 46.12 z" /></clipPath><clipPath
       id="clipPath48"
       clipPathUnits="userSpaceOnUse"><path
         id="path46"
         d="m 100.483,335.942 59.471,-46.12 c 13.998,42.075 53.242,73.389 99.606,73.389 v 0 c 26.135,0 49.601,-8.982 68.049,-26.621 v 0 l 51.057,51.057 c -30.829,28.724 -71.123,46.365 -119.106,46.365 v 0 c -69.586,0 -129.786,-39.892 -159.077,-98.07" /></clipPath></defs><g
     transform="matrix(1.3333333,0,0,-1.3333333,0,682.66667)"
     id="g10"><g
       id="g12"><g
         clip-path="url(#clipPath18)"
         id="g14"><path
           id="path20"
           style="fill:#3e82f1;fill-opacity:1;fill-rule:nonzero;stroke:none"
           d="M 160.665,387.261 H 529.346 V 22.22 H 160.665 Z" /></g></g><g
       id="g22"><g
         clip-path="url(#clipPath28)"
         id="g24"><path
           id="path30"
           style="fill:#32a753;fill-opacity:1;fill-rule:nonzero;stroke:none"
           d="M 1.588,321.073 H 476.267 V -20.907 H 1.588 Z" /></g></g><g
       id="g32"><g
         clip-path="url(#clipPath38)"
         id="g34"><path
           id="path40"
           style="fill:#f9bb00;fill-opacity:1;fill-rule:nonzero;stroke:none"
           d="M -17.346,434.838 H 258.85 V 77.161 H -17.346 Z" /></g></g><g
       id="g42"><g
         clip-path="url(#clipPath48)"
         id="g44"><path
           id="path50"
           style="fill:#e74133;fill-opacity:1;fill-rule:nonzero;stroke:none"
           d="M 1.588,532.906 H 477.562 V 190.927 H 1.588 Z" /></g></g></g></svg>