<svg width="390" height="390" viewBox="0 0 390 390" fill="none" xmlns="http://www.w3.org/2000/svg">
<path d="M70 190C70 181.716 63.284 175 55 175L15 174.999C6.717 174.999 0 181.715 0 189.999C0 198.283 6.716 204.999 15 204.999L55 205C63.283 205 70 198.284 70 190Z" fill="white"/>
<path d="M18.571 116.408L54.711 133.553C56.787 134.537 58.975 135.004 61.13 135.004C66.742 135.004 72.126 131.838 74.692 126.429C78.243 118.945 75.053 109.998 67.568 106.448L31.428 89.303C23.944 85.754 14.998 88.942 11.447 96.427C7.897 103.911 11.086 112.857 18.571 116.408Z" fill="white"/>
<path d="M375 174.999L335 175C326.716 175 320 181.716 320 190C320 198.284 326.716 205 335 205L375 204.999C383.284 204.999 390 198.283 390 189.999C390 181.715 383.284 174.999 375 174.999Z" fill="white"/>
<path d="M328.87 135.004C331.025 135.004 333.214 134.537 335.289 133.553L371.429 116.408C378.914 112.857 382.104 103.911 378.553 96.427C375.002 88.943 366.056 85.754 358.572 89.303L322.432 106.448C314.947 109.999 311.757 118.945 315.308 126.429C317.874 131.838 323.257 135.004 328.87 135.004Z" fill="white"/>
<path d="M315 275H304.907L279.901 58.28C279.027 50.712 272.619 45 265 45H125C117.381 45 110.973 50.712 110.099 58.28L85.093 275H75C55.67 275 40 290.67 40 310C40 329.33 55.67 345 75 345H315C334.33 345 350 329.33 350 310C350 290.67 334.33 275 315 275ZM138.369 75H195V275H115.291L138.369 75Z" fill="white"/>
</svg>
